<!-- Generated by IcoMoon.io -->
<svg version="1.1" xmlns="http://www.w3.org/2000/svg" width="47" height="32" viewBox="0 0 47 32">
<title>Logo_food</title>
<path fill="#eb3d32" d="M38.57 27.563c0-2.444 1.985-4.437 4.437-4.437 2.444 0 4.437 1.985 4.437 4.437 0 2.444-1.985 4.437-4.437 4.437-2.444 0-4.437-1.993-4.437-4.437zM20.281 32c2.444 0 4.437-1.985 4.437-4.437 0-2.444-1.985-4.437-4.437-4.437-2.459 0-4.437 1.985-4.437 4.437 0 2.444 1.993 4.437 4.437 4.437z"></path>
<path fill="#84ab30" d="M33.933 22.807c0 0-0.415 1.089 0.681 1.089 2.481 0 2.467 1.452 2.467 1.452h-5.356l0.667-2.541h1.541z"></path>
<path fill="#84ab30" d="M37.415 28.444c-0.948-2.481 0.007-5.348 2.378-6.733s5.341-0.807 7.037 1.23l-9.415 5.504z"></path>
<path fill="#eb3d32" d="M28.452 19.852c-2.022 3.585 0.622 5.504 0.622 5.504h5.607c0.704-0.267 2.259-1.837 3.274-4.17s-2.496-9.652-2.496-9.652c1.481-1.867 5.341-1.015 5.341-1.015v3.978l-2.23-0.63 3.193 6.541-5.911 7.156h-20.711l4.289-7.711h9.022z"></path>
<path fill="#fa8110" d="M40.8 27.563c0-1.222 0.985-2.207 2.207-2.207s2.207 0.985 2.207 2.207-0.985 2.207-2.207 2.207c-1.222 0-2.207-0.985-2.207-2.207zM20.281 29.77c1.222 0 2.207-0.985 2.207-2.207s-0.985-2.207-2.207-2.207c-1.222 0-2.207 0.985-2.207 2.207s0.985 2.207 2.207 2.207z"></path>
<path fill="#84ab30" d="M29.933 19.852h-12.533v-2.407h12.533v2.407zM20.978 21.067c-3.378 0-6.933 2.911-6.933 6.496h12.222c0.007-4.4-0.807-6.496-5.289-6.496zM33.259 11.133c-0.911-0.467-1.652-5.067-4.356-4.904-2.711 0.148-3.881 5.756-4.193 7.237l4.2 0.385c0.311-1.556 1.244-3.548 1.244-3.548s0.541 2.681 1.904 2.919c0.8 0.133 2.304 0.319 3.43 0.452l0.274-2.007c-0.911-0.096-2.007-0.289-2.504-0.533z"></path>
<path fill="#fa8110" d="M32.889 2.719c0 1.511-1.222 2.726-2.719 2.726-1.504 0-2.719-1.222-2.719-2.726s1.207-2.719 2.719-2.719c1.496 0 2.719 1.222 2.719 2.719zM37.252 11.837c0 0-0.667-0.044-1.467-0.148l-0.274 2.007c0.815 0.096 1.43 0.163 1.43 0.163 0.778-0.704 0.889-0.859 0.311-2.022z"></path>
<path fill="#fa8110" d="M22.222 17.444h-9.8v-9.504h9.8v9.504zM16.089 20.4c0-0.133-0.111-0.244-0.244-0.244h-7.548c-0.133 0-0.244 0.111-0.244 0.244s0.111 0.244 0.244 0.244h7.548c0.141 0 0.244-0.111 0.244-0.244zM13.607 22.422c0-0.133-0.111-0.244-0.244-0.244h-11.452c-0.133 0-0.244 0.111-0.244 0.244s0.111 0.244 0.244 0.244h11.444c0.133 0 0.252-0.104 0.252-0.244zM16.089 25.933c0-0.133-0.111-0.244-0.244-0.244h-9.415c-0.133 0-0.244 0.111-0.244 0.244s0.111 0.244 0.244 0.244h9.415c0.141 0 0.244-0.119 0.244-0.244zM18.319 24.43c0-0.133-0.111-0.244-0.244-0.244h-8.459c-0.133 0-0.244 0.111-0.244 0.244s0.111 0.244 0.244 0.244h8.459c0.141 0.007 0.244-0.111 0.244-0.244zM11.437 15.185c0-0.133-0.111-0.244-0.244-0.244h-10.911c-0.133 0-0.244 0.111-0.244 0.244s0.111 0.244 0.244 0.244h10.896c0.141 0 0.259-0.111 0.259-0.244zM10.985 13c0-0.133-0.111-0.244-0.244-0.244h-7.193c-0.133 0-0.244 0.111-0.244 0.244s0.111 0.244 0.244 0.244h7.193c0.133 0.007 0.244-0.111 0.244-0.244z"></path>
<path fill="#eb3d32" d="M34.6 1.696l-7.148 1.156c0-0.044-0.007-0.089-0.007-0.133 0-1.496 1.222-2.719 2.733-2.719 1.148 0 2.126 0.711 2.526 1.704l1.859-0.296 0.037 0.289zM24.719 13.467c-0.311 1.481 0.074 3.978 1.556 3.978h3.659c2.178 0 2.807 2.104 1.867 5.37h2.407c1.163-4.511 1.556-5.844 0-6.622s-5.607-0.778-5.289-2.333l-4.2-0.393z"></path>
</svg>
